<?xml version="1.0" encoding="UTF-8"?>
<svg xmlns="http://www.w3.org/2000/svg" xmlns:xlink="http://www.w3.org/1999/xlink" width="24px" height="24px" viewBox="0 0 24 24" version="1.1">
<g id="surface286875">
<path style=" stroke:none;fill-rule:nonzero;fill:rgb(69.019608%,74.509804%,77.254902%);fill-opacity:1;" d="M 21 21 L 8.507812 21 L 8.5 20 L 21 20 Z M 21 21 "/>
<path style=" stroke:none;fill-rule:nonzero;fill:rgb(37.647059%,49.019608%,54.509804%);fill-opacity:1;" d="M 15.375 16.375 L 21.386719 10.363281 C 21.777344 9.972656 21.777344 9.339844 21.386719 8.949219 L 15.726562 3.292969 C 15.335938 2.902344 14.703125 2.902344 14.3125 3.292969 L 8.304688 9.304688 Z M 15.375 16.375 "/>
<path style=" stroke:none;fill-rule:nonzero;fill:rgb(32.941176%,43.137255%,47.843137%);fill-opacity:1;" d="M 19.863281 11.886719 L 21.386719 10.363281 C 21.777344 9.972656 21.777344 9.339844 21.386719 8.949219 L 15.726562 3.292969 C 15.335938 2.902344 14.703125 2.902344 14.3125 3.292969 L 12.792969 4.8125 Z M 19.863281 11.886719 "/>
<path style=" stroke:none;fill-rule:nonzero;fill:rgb(81.176471%,84.705882%,86.27451%);fill-opacity:1;" d="M 10.683594 21 L 15.375 16.375 L 8.304688 9.304688 L 2.292969 15.3125 C 1.902344 15.703125 1.902344 16.335938 2.292969 16.726562 L 6.5 21 Z M 10.683594 21 "/>
</g>
</svg>
